 http://img89.imageshack.us/img89/7131/mrpopperspenguins2011.jpg

Country.......: USA
Genre.........: Comedy, Family
Date release..: 16.06.2011 [World]
Director......: Mark Waters
Writers.......: Sean Anders, John Morris
Duration......: 94 min.
More..........: http://www.imdb.com/title/tt1396218
Trailer.......: http://www.imdb.com/video/screenplay/vi1791138841
Trailer.......:

Pilot :
The life of a businessman begins to change after he inherits six penguins, and as he transforms his apartment into a winter wonderland, his professional side starts to unravel.

Cats :
Jim Carrey   	 ...  	Mr. Popper
Carla Gugino 	... 	Amanda
Angela Lansbury 	... 	Mrs. Van Gundy
Ophelia Lovibond 	... 	Pippi
Madeline Carroll 	... 	Janie
Clark Gregg 	... 	Nat Jones
Jeffrey Tambor 	... 	Mr. Gremmins
David Krumholtz 	... 	Kent
Philip Baker Hall 	... 	Franklin
Maxwell Perry Cotton 	... 	Billy
James Tupper 	... 	Rick
Dominic Chianese 	... 	Reader
William Charles Mitchell 	... 	Yates (as William C. Mitchell)
Kelli Barrett 	... 	Tommys Mom
Dylan Clark Marshall 	... 	Young Tommy Popper #2 

Data Technical :
!!! SAMPLE !!!
Audio.....: English
Subtitles.: Bulgarian .srt
Format                           : AVI
Format/Info                      : Audio Video Interleave
File size                        : 1 017 MiB
Duration                         : 1h 34mn
Overall bit rate                 : 1 508 Kbps
Writing application              : VirtualDubMod 1.5.10.2 (build 2540/release)
Writing library                  : VirtualDubMod build 2540/release
Video
ID                               : 0
Format                           : MPEG-4 Visual
Format profile                   : Advanced Simple@L5
Format settings, BVOP            : Yes
Format settings, QPel            : No
Format settings, GMC             : No warppoints
Format settings, Matrix          : Default (H.263)
Muxing mode                      : Packed bitstream
Codec ID                         : XVID
Codec ID/Hint                    : XviD
Duration                         : 1h 34mn
Bit rate                         : 1 369 Kbps
Width                            : 640 pixels
Height                           : 352 pixels
Display aspect ratio             : 16:9
Frame rate                       : 29.970 fps
Color space                      : YUV
Chroma subsampling               : 4:2:0
Bit depth                        : 8 bits
Scan type                        : Progressive
Bits/(Pixel*Frame)               : 0.203
Stream size                      : 923 MiB (91%)
Writing library                  : XviD 64
Audio
ID                               : 1
Format                           : MPEG Audio
Format version                   : Version 1
Format profile                   : Layer 3
Mode                             : Joint stereo
Mode extension                   : MS Stereo
Codec ID                         : 55
Codec ID/Hint                    : MP3
Duration                         : 1h 34mn
Bit rate mode                    : Constant
Bit rate                         : 128 Kbps
Channel(s)                       : 2 channels
Sampling rate                    : 44.1 KHz
Stream size                      : 86.3 MiB (8%)
Alignment                        : Split accross interleaves
Interleave, duration             : 33 ms (1.00 video frame)
Interleave, preload duration     : 500 ms
Writing library                  : LAME3.98r
Encoding settings                : -m j -V 4 -q 2 -lowpass 17 -b 128

Screen : 
http://img43.imageshack.us/img43/3474/mrpopperspenguins2011s1.jpg 
http://img833.imageshack.us/img833/7360/mrpopperspenguins2011s2.jpg 
http://img155.imageshack.us/img155/3316/mrpopperspenguins2011s3.jpg 
http://img710.imageshack.us/img710/2456/mrpopperspenguins2011s4.jpg 
http://img190.imageshack.us/img190/6743/mrpopperspenguins2011s5.jpg